<mxfile host="app.diagrams.net" agent="Mozilla/5.0 (Windows NT 10.0; Win64; x64) AppleWebKit/537.36 (KHTML, like Gecko) Chrome/135.0.0.0 Safari/537.36" version="26.2.13">
  <diagram id="activity-diagram" name="Activity Diagram">
    <mxGraphModel dx="761" dy="263" grid="0" gridSize="10" guides="1" tooltips="1" connect="1" arrows="1" fold="1" page="0" pageScale="1" pageWidth="1100" pageHeight="850" math="0" shadow="0">
      <root>
        <mxCell id="0" />
        <mxCell id="1" parent="0" />
        <mxCell id="swimlane1" value="Giáo viên" style="swimlane;startSize=20;horizontal=1;" parent="1" vertex="1">
          <mxGeometry x="-2" y="40" width="242" height="615" as="geometry" />
        </mxCell>
        <mxCell id="HAjJC_EbhUUijS3GL95K-2" style="edgeStyle=orthogonalEdgeStyle;rounded=0;orthogonalLoop=1;jettySize=auto;html=1;entryX=0;entryY=0.5;entryDx=0;entryDy=0;exitX=0.5;exitY=1;exitDx=0;exitDy=0;" edge="1" parent="swimlane1" source="start" target="createAssignment">
          <mxGeometry relative="1" as="geometry" />
        </mxCell>
        <mxCell id="start" value="" style="ellipse;fillColor=#000000;strokeColor=none;" parent="swimlane1" vertex="1">
          <mxGeometry x="32" y="39" width="30" height="30" as="geometry" />
        </mxCell>
        <mxCell id="createPost" value="Tạo bài viết" style="rounded=1;whiteSpace=wrap;html=1;" parent="swimlane1" vertex="1">
          <mxGeometry x="105" y="171" width="120" height="40" as="geometry" />
        </mxCell>
        <mxCell id="createAssignment" value="Tạo bài tập" style="rounded=1;whiteSpace=wrap;html=1;" parent="swimlane1" vertex="1">
          <mxGeometry x="107" y="90" width="120" height="40" as="geometry" />
        </mxCell>
        <mxCell id="reviewSubmission" value="Xem xét bài nộp" style="rounded=1;whiteSpace=wrap;html=1;" parent="swimlane1" vertex="1">
          <mxGeometry x="40" y="425" width="120" height="40" as="geometry" />
        </mxCell>
        <mxCell id="end" value="" style="ellipse;html=1;shape=endState;fillColor=#000000;strokeColor=#000000;" parent="swimlane1" vertex="1">
          <mxGeometry x="83" y="565" width="30" height="30" as="geometry" />
        </mxCell>
        <mxCell id="swimlane2" value="Hệ thống" style="swimlane;startSize=20;horizontal=1;" parent="1" vertex="1">
          <mxGeometry x="240" y="40" width="200" height="615" as="geometry" />
        </mxCell>
        <mxCell id="validatePost" value="Kiểm tra&lt;br&gt;bài viết" style="rhombus;whiteSpace=wrap;html=1;" parent="swimlane2" vertex="1">
          <mxGeometry x="64" y="152" width="80" height="80" as="geometry" />
        </mxCell>
        <mxCell id="validateAssignment" value="Kiểm tra&#xa;bài tập" style="rhombus;whiteSpace=wrap;html=1;" parent="swimlane2" vertex="1">
          <mxGeometry x="64" y="70" width="80" height="80" as="geometry" />
        </mxCell>
        <mxCell id="notifyStudents" value="Thông báo cho&#xa;học viên" style="rounded=1;whiteSpace=wrap;html=1;" parent="swimlane2" vertex="1">
          <mxGeometry x="40" y="280" width="120" height="40" as="geometry" />
        </mxCell>
        <mxCell id="swimlane3" value="Học viên" style="swimlane;startSize=20;horizontal=1;" parent="1" vertex="1">
          <mxGeometry x="440" y="40" width="200" height="615" as="geometry" />
        </mxCell>
        <mxCell id="viewContent" value="Xem nội dung" style="rounded=1;whiteSpace=wrap;html=1;" parent="swimlane3" vertex="1">
          <mxGeometry x="40" y="280" width="120" height="40" as="geometry" />
        </mxCell>
        <mxCell id="submitAssignment" value="Nộp bài tập" style="rounded=1;whiteSpace=wrap;html=1;" parent="swimlane3" vertex="1">
          <mxGeometry x="40" y="360" width="120" height="40" as="geometry" />
        </mxCell>
        <mxCell id="swimlane4" value="Cơ sở dữ liệu" style="swimlane;startSize=20;horizontal=1;" parent="1" vertex="1">
          <mxGeometry x="640" y="40" width="200" height="615" as="geometry" />
        </mxCell>
        <mxCell id="savePost" value="Lưu bài đăng" style="rounded=1;whiteSpace=wrap;html=1;" parent="swimlane4" vertex="1">
          <mxGeometry x="44" y="172" width="120" height="40" as="geometry" />
        </mxCell>
        <mxCell id="saveAssignment" value="Lưu bài tập" style="rounded=1;whiteSpace=wrap;html=1;" parent="swimlane4" vertex="1">
          <mxGeometry x="45" y="90" width="120" height="40" as="geometry" />
        </mxCell>
        <mxCell id="saveSubmission" value="Lưu bài nộp" style="rounded=1;whiteSpace=wrap;html=1;" parent="swimlane4" vertex="1">
          <mxGeometry x="44" y="360" width="120" height="40" as="geometry" />
        </mxCell>
        <mxCell id="flow1" value="" style="endArrow=classic;html=1;entryX=0;entryY=0.5;entryDx=0;entryDy=0;rounded=0;edgeStyle=orthogonalEdgeStyle;exitX=0.5;exitY=1;exitDx=0;exitDy=0;" parent="1" source="start" target="createPost" edge="1">
          <mxGeometry relative="1" as="geometry" />
        </mxCell>
        <mxCell id="flow2" value="" style="endArrow=classic;html=1;" parent="1" source="createPost" target="validatePost" edge="1">
          <mxGeometry relative="1" as="geometry" />
        </mxCell>
        <mxCell id="flow3" value="Hợp lệ" style="endArrow=classic;html=1;" parent="1" source="validatePost" target="savePost" edge="1">
          <mxGeometry relative="1" as="geometry" />
        </mxCell>
        <mxCell id="flow4" value="" style="endArrow=classic;html=1;rounded=0;edgeStyle=elbowEdgeStyle;elbow=vertical;" parent="1" source="savePost" target="notifyStudents" edge="1">
          <mxGeometry relative="1" as="geometry" />
        </mxCell>
        <mxCell id="flow5" value="" style="endArrow=classic;html=1;" parent="1" source="notifyStudents" target="viewContent" edge="1">
          <mxGeometry relative="1" as="geometry" />
        </mxCell>
        <mxCell id="flow6" value="" style="endArrow=classic;html=1;" parent="1" source="createAssignment" target="validateAssignment" edge="1">
          <mxGeometry relative="1" as="geometry" />
        </mxCell>
        <mxCell id="flow7" value="Hợp lệ" style="endArrow=classic;html=1;" parent="1" source="validateAssignment" target="saveAssignment" edge="1">
          <mxGeometry relative="1" as="geometry" />
        </mxCell>
        <mxCell id="flow8" value="" style="endArrow=classic;html=1;" parent="1" source="submitAssignment" target="saveSubmission" edge="1">
          <mxGeometry relative="1" as="geometry" />
        </mxCell>
        <mxCell id="flow9" value="" style="endArrow=classic;html=1;edgeStyle=orthogonalEdgeStyle;elbow=vertical;exitX=0.5;exitY=1;exitDx=0;exitDy=0;entryX=1;entryY=0.5;entryDx=0;entryDy=0;rounded=0;curved=0;" parent="1" source="saveSubmission" target="reviewSubmission" edge="1">
          <mxGeometry relative="1" as="geometry" />
        </mxCell>
        <mxCell id="flow10" value="" style="endArrow=classic;html=1;" parent="1" source="reviewSubmission" target="end" edge="1">
          <mxGeometry relative="1" as="geometry" />
        </mxCell>
      </root>
    </mxGraphModel>
  </diagram>
</mxfile>
